<mxfile host="app.diagrams.net" modified="2023-05-31T13:34:18.343Z" agent="Mozilla/5.0 (Windows NT 10.0; Win64; x64) AppleWebKit/537.36 (KHTML, like Gecko) Chrome/113.0.0.0 Safari/537.36" etag="RzEuKInvjLRIOakx1VFR" version="21.1.1" type="device">
  <diagram id="C5RBs43oDa-KdzZeNtuy" name="Page-1">
    <mxGraphModel dx="1050" dy="531" grid="1" gridSize="10" guides="1" tooltips="1" connect="1" arrows="1" fold="1" page="1" pageScale="1" pageWidth="827" pageHeight="1169" math="0" shadow="0">
      <root>
        <mxCell id="WIyWlLk6GJQsqaUBKTNV-0" />
        <mxCell id="WIyWlLk6GJQsqaUBKTNV-1" parent="WIyWlLk6GJQsqaUBKTNV-0" />
        <mxCell id="mNa8x9mkkVK376bRyv9L-53" value="" style="edgeStyle=orthogonalEdgeStyle;rounded=0;orthogonalLoop=1;jettySize=auto;html=1;" edge="1" parent="WIyWlLk6GJQsqaUBKTNV-1" source="mNa8x9mkkVK376bRyv9L-54" target="mNa8x9mkkVK376bRyv9L-57">
          <mxGeometry relative="1" as="geometry" />
        </mxCell>
        <mxCell id="mNa8x9mkkVK376bRyv9L-54" value="Ötlet létrehozva&lt;br&gt;&lt;b&gt;SUBMITTED&lt;/b&gt;" style="rounded=1;whiteSpace=wrap;html=1;" vertex="1" parent="WIyWlLk6GJQsqaUBKTNV-1">
          <mxGeometry x="400" y="80" width="200" height="40" as="geometry" />
        </mxCell>
        <mxCell id="mNa8x9mkkVK376bRyv9L-55" value="&lt;b&gt;&lt;font style=&quot;font-size: 18px;&quot;&gt;Ötlet életciklusa&lt;/font&gt;&lt;/b&gt;" style="text;html=1;align=center;verticalAlign=middle;resizable=0;points=[];autosize=1;strokeColor=none;fillColor=none;" vertex="1" parent="WIyWlLk6GJQsqaUBKTNV-1">
          <mxGeometry x="420" y="40" width="160" height="40" as="geometry" />
        </mxCell>
        <mxCell id="mNa8x9mkkVK376bRyv9L-56" value="" style="edgeStyle=orthogonalEdgeStyle;rounded=0;orthogonalLoop=1;jettySize=auto;html=1;" edge="1" parent="WIyWlLk6GJQsqaUBKTNV-1" source="mNa8x9mkkVK376bRyv9L-57" target="mNa8x9mkkVK376bRyv9L-61">
          <mxGeometry relative="1" as="geometry" />
        </mxCell>
        <mxCell id="mNa8x9mkkVK376bRyv9L-57" value="Ötlet minden bíráló által bírálva&lt;br&gt;&lt;b&gt;REVIEWED&lt;/b&gt;" style="rounded=1;whiteSpace=wrap;html=1;" vertex="1" parent="WIyWlLk6GJQsqaUBKTNV-1">
          <mxGeometry x="400" y="160" width="200" height="40" as="geometry" />
        </mxCell>
        <mxCell id="mNa8x9mkkVK376bRyv9L-58" style="edgeStyle=orthogonalEdgeStyle;rounded=0;orthogonalLoop=1;jettySize=auto;html=1;entryX=0.5;entryY=0;entryDx=0;entryDy=0;" edge="1" parent="WIyWlLk6GJQsqaUBKTNV-1" source="mNa8x9mkkVK376bRyv9L-61" target="mNa8x9mkkVK376bRyv9L-62">
          <mxGeometry relative="1" as="geometry" />
        </mxCell>
        <mxCell id="mNa8x9mkkVK376bRyv9L-59" style="edgeStyle=orthogonalEdgeStyle;rounded=0;orthogonalLoop=1;jettySize=auto;html=1;entryX=0.5;entryY=0;entryDx=0;entryDy=0;" edge="1" parent="WIyWlLk6GJQsqaUBKTNV-1" source="mNa8x9mkkVK376bRyv9L-61" target="mNa8x9mkkVK376bRyv9L-63">
          <mxGeometry relative="1" as="geometry" />
        </mxCell>
        <mxCell id="mNa8x9mkkVK376bRyv9L-60" style="edgeStyle=orthogonalEdgeStyle;rounded=0;orthogonalLoop=1;jettySize=auto;html=1;entryX=1;entryY=0.5;entryDx=0;entryDy=0;" edge="1" parent="WIyWlLk6GJQsqaUBKTNV-1" source="mNa8x9mkkVK376bRyv9L-61" target="mNa8x9mkkVK376bRyv9L-54">
          <mxGeometry relative="1" as="geometry">
            <Array as="points">
              <mxPoint x="620" y="280" />
              <mxPoint x="620" y="100" />
            </Array>
          </mxGeometry>
        </mxCell>
        <mxCell id="mNa8x9mkkVK376bRyv9L-61" value="Döntés az admin által" style="rhombus;whiteSpace=wrap;html=1;" vertex="1" parent="WIyWlLk6GJQsqaUBKTNV-1">
          <mxGeometry x="455" y="240" width="90" height="80" as="geometry" />
        </mxCell>
        <mxCell id="mNa8x9mkkVK376bRyv9L-62" value="Ötlet elfogadva&lt;br&gt;&lt;b&gt;APPROVED&lt;/b&gt;" style="rounded=1;whiteSpace=wrap;html=1;" vertex="1" parent="WIyWlLk6GJQsqaUBKTNV-1">
          <mxGeometry x="400" y="360" width="80" height="70" as="geometry" />
        </mxCell>
        <mxCell id="mNa8x9mkkVK376bRyv9L-63" value="Ötlet elutasítva&lt;br&gt;&lt;b&gt;DENIED&lt;/b&gt;" style="rounded=1;whiteSpace=wrap;html=1;" vertex="1" parent="WIyWlLk6GJQsqaUBKTNV-1">
          <mxGeometry x="520" y="360" width="80" height="70" as="geometry" />
        </mxCell>
        <mxCell id="mNa8x9mkkVK376bRyv9L-64" value="elfogadás" style="text;html=1;align=center;verticalAlign=middle;resizable=0;points=[];autosize=1;strokeColor=none;fillColor=none;" vertex="1" parent="WIyWlLk6GJQsqaUBKTNV-1">
          <mxGeometry x="430" y="315" width="80" height="30" as="geometry" />
        </mxCell>
        <mxCell id="mNa8x9mkkVK376bRyv9L-65" value="elutasítás" style="text;html=1;align=center;verticalAlign=middle;resizable=0;points=[];autosize=1;strokeColor=none;fillColor=none;" vertex="1" parent="WIyWlLk6GJQsqaUBKTNV-1">
          <mxGeometry x="495" y="315" width="70" height="30" as="geometry" />
        </mxCell>
        <mxCell id="mNa8x9mkkVK376bRyv9L-66" value="visszaküldés" style="text;html=1;align=center;verticalAlign=middle;resizable=0;points=[];autosize=1;strokeColor=none;fillColor=none;" vertex="1" parent="WIyWlLk6GJQsqaUBKTNV-1">
          <mxGeometry x="535" y="250" width="90" height="30" as="geometry" />
        </mxCell>
        <mxCell id="mNa8x9mkkVK376bRyv9L-67" value="" style="edgeStyle=orthogonalEdgeStyle;rounded=0;orthogonalLoop=1;jettySize=auto;html=1;" edge="1" parent="WIyWlLk6GJQsqaUBKTNV-1" source="mNa8x9mkkVK376bRyv9L-68" target="mNa8x9mkkVK376bRyv9L-70">
          <mxGeometry relative="1" as="geometry" />
        </mxCell>
        <mxCell id="mNa8x9mkkVK376bRyv9L-68" value="Ötletdoboz létrehozva" style="rounded=1;whiteSpace=wrap;html=1;" vertex="1" parent="WIyWlLk6GJQsqaUBKTNV-1">
          <mxGeometry x="80" y="80" width="160" height="40" as="geometry" />
        </mxCell>
        <mxCell id="mNa8x9mkkVK376bRyv9L-69" value="" style="edgeStyle=orthogonalEdgeStyle;rounded=0;orthogonalLoop=1;jettySize=auto;html=1;" edge="1" parent="WIyWlLk6GJQsqaUBKTNV-1" source="mNa8x9mkkVK376bRyv9L-70" target="mNa8x9mkkVK376bRyv9L-72">
          <mxGeometry relative="1" as="geometry" />
        </mxCell>
        <mxCell id="mNa8x9mkkVK376bRyv9L-70" value="Kötelező bírálók beállítása" style="rounded=1;whiteSpace=wrap;html=1;" vertex="1" parent="WIyWlLk6GJQsqaUBKTNV-1">
          <mxGeometry x="80" y="160" width="160" height="40" as="geometry" />
        </mxCell>
        <mxCell id="mNa8x9mkkVK376bRyv9L-71" value="" style="edgeStyle=orthogonalEdgeStyle;rounded=0;orthogonalLoop=1;jettySize=auto;html=1;" edge="1" parent="WIyWlLk6GJQsqaUBKTNV-1" source="mNa8x9mkkVK376bRyv9L-72" target="mNa8x9mkkVK376bRyv9L-74">
          <mxGeometry relative="1" as="geometry" />
        </mxCell>
        <mxCell id="mNa8x9mkkVK376bRyv9L-72" value="Bírálási szempontok beállítása" style="rounded=1;whiteSpace=wrap;html=1;" vertex="1" parent="WIyWlLk6GJQsqaUBKTNV-1">
          <mxGeometry x="80" y="240" width="160" height="40" as="geometry" />
        </mxCell>
        <mxCell id="mNa8x9mkkVK376bRyv9L-73" value="" style="edgeStyle=orthogonalEdgeStyle;rounded=0;orthogonalLoop=1;jettySize=auto;html=1;" edge="1" parent="WIyWlLk6GJQsqaUBKTNV-1" source="mNa8x9mkkVK376bRyv9L-74" target="mNa8x9mkkVK376bRyv9L-76">
          <mxGeometry relative="1" as="geometry" />
        </mxCell>
        <mxCell id="mNa8x9mkkVK376bRyv9L-74" value="Beárkező ötletek bírálása" style="rounded=1;whiteSpace=wrap;html=1;" vertex="1" parent="WIyWlLk6GJQsqaUBKTNV-1">
          <mxGeometry x="80" y="320" width="160" height="40" as="geometry" />
        </mxCell>
        <mxCell id="mNa8x9mkkVK376bRyv9L-75" value="" style="edgeStyle=orthogonalEdgeStyle;rounded=0;orthogonalLoop=1;jettySize=auto;html=1;" edge="1" parent="WIyWlLk6GJQsqaUBKTNV-1" source="mNa8x9mkkVK376bRyv9L-76" target="mNa8x9mkkVK376bRyv9L-77">
          <mxGeometry relative="1" as="geometry" />
        </mxCell>
        <mxCell id="mNa8x9mkkVK376bRyv9L-76" value="Ötletdoboz lezárása" style="rounded=1;whiteSpace=wrap;html=1;" vertex="1" parent="WIyWlLk6GJQsqaUBKTNV-1">
          <mxGeometry x="80" y="400" width="160" height="40" as="geometry" />
        </mxCell>
        <mxCell id="mNa8x9mkkVK376bRyv9L-77" value="Eredmények" style="rounded=1;whiteSpace=wrap;html=1;" vertex="1" parent="WIyWlLk6GJQsqaUBKTNV-1">
          <mxGeometry x="80" y="480" width="160" height="40" as="geometry" />
        </mxCell>
        <mxCell id="mNa8x9mkkVK376bRyv9L-78" value="&lt;b&gt;&lt;font style=&quot;font-size: 18px;&quot;&gt;Ötletdoboz életciklusa&lt;/font&gt;&lt;/b&gt;" style="text;html=1;align=center;verticalAlign=middle;resizable=0;points=[];autosize=1;strokeColor=none;fillColor=none;" vertex="1" parent="WIyWlLk6GJQsqaUBKTNV-1">
          <mxGeometry x="55" y="40" width="210" height="40" as="geometry" />
        </mxCell>
      </root>
    </mxGraphModel>
  </diagram>
</mxfile>
